<svg xmlns="http://www.w3.org/2000/svg" viewBox="0 0 64 64">
  <!-- Red circle background -->
  <circle cx="32" cy="32" r="32" fill="#e11d48"/>
  
  <!-- Outer petals (light pink) -->
  <ellipse cx="32" cy="17" rx="6.5" ry="10" fill="#fda4af" opacity="0.9" transform="rotate(0 32 32)"/>
  <ellipse cx="32" cy="17" rx="6.5" ry="10" fill="#fda4af" opacity="0.9" transform="rotate(45 32 32)"/>
  <ellipse cx="32" cy="17" rx="6.5" ry="10" fill="#fda4af" opacity="0.9" transform="rotate(90 32 32)"/>
  <ellipse cx="32" cy="17" rx="6.5" ry="10" fill="#fda4af" opacity="0.9" transform="rotate(135 32 32)"/>
  <ellipse cx="32" cy="17" rx="6.5" ry="10" fill="#fda4af" opacity="0.9" transform="rotate(180 32 32)"/>
  <ellipse cx="32" cy="17" rx="6.5" ry="10" fill="#fda4af" opacity="0.9" transform="rotate(225 32 32)"/>
  <ellipse cx="32" cy="17" rx="6.5" ry="10" fill="#fda4af" opacity="0.9" transform="rotate(270 32 32)"/>
  <ellipse cx="32" cy="17" rx="6.5" ry="10" fill="#fda4af" opacity="0.9" transform="rotate(315 32 32)"/>
  
  <!-- Inner petals (medium pink, rotated 22.5°) -->
  <ellipse cx="32" cy="21" rx="5.5" ry="8" fill="#fb7185" transform="rotate(22.5 32 32)"/>
  <ellipse cx="32" cy="21" rx="5.5" ry="8" fill="#fb7185" transform="rotate(67.5 32 32)"/>
  <ellipse cx="32" cy="21" rx="5.5" ry="8" fill="#fb7185" transform="rotate(112.5 32 32)"/>
  <ellipse cx="32" cy="21" rx="5.5" ry="8" fill="#fb7185" transform="rotate(157.5 32 32)"/>
  <ellipse cx="32" cy="21" rx="5.5" ry="8" fill="#fb7185" transform="rotate(202.5 32 32)"/>
  <ellipse cx="32" cy="21" rx="5.5" ry="8" fill="#fb7185" transform="rotate(247.5 32 32)"/>
  <ellipse cx="32" cy="21" rx="5.5" ry="8" fill="#fb7185" transform="rotate(292.5 32 32)"/>
  <ellipse cx="32" cy="21" rx="5.5" ry="8" fill="#fb7185" transform="rotate(337.5 32 32)"/>
  
  <!-- Center -->
  <circle cx="32" cy="32" r="8" fill="#be123c"/>
  <circle cx="32" cy="32" r="5" fill="#9f1239"/>
  <circle cx="30" cy="30" r="1.5" fill="#e11d48" opacity="0.5"/>
</svg>
